<svg width="1400" height="334" viewBox="0 0 1400 334" fill="none" xmlns="http://www.w3.org/2000/svg">
<path d="M10.0609 199.258C-16.9475 184.779 14.4796 139.475 111.973 140.721C233.84 142.278 294.806 173.655 357.415 155.751C420.023 137.847 323.701 96.7492 461.684 100.056C599.666 103.363 604.866 126.836 660.421 119.975C742.288 109.863 695.937 51.7643 809.012 54.5921C941.63 57.9085 847.19 35.9063 965.522 1" stroke="#FF0000"/>
<path d="M475.669 332.62C448.663 318.141 480.095 272.837 577.588 274.081C699.455 275.636 760.417 307.013 823.028 289.107C885.638 271.202 789.321 230.106 927.303 233.41C1065.29 236.715 1070.48 260.189 1126.04 253.326C1207.91 243.213 1161.56 185.115 1274.64 187.941C1407.25 191.255 1278.84 144.914 1397.18 110.005" stroke="#0029FF"/>
<path d="M31.3543 205.61C4.41061 191.131 36.039 145.827 133.526 147.071C255.385 148.626 316.211 180.003 378.899 162.097C441.586 144.192 345.448 103.095 483.415 106.4C621.382 109.704 626.477 133.178 682.061 126.316C763.973 116.203 717.881 58.1041 830.943 60.93C963.545 64.2444 867.591 41.0843 986.077 6.17572" stroke="#F3020C"/>
<path d="M53.5218 211.961C26.5781 197.482 58.2065 152.177 155.694 153.422C277.553 154.977 338.379 186.353 401.066 168.448C463.754 150.543 367.616 109.446 505.582 112.751C643.549 116.055 648.644 139.529 704.229 132.666C786.14 122.553 740.048 64.4547 853.11 67.2807C985.713 70.595 888.146 46.2759 1006.63 11.3673" stroke="#E70418"/>
<path d="M75.6898 218.312C48.7462 203.833 80.3746 158.528 177.862 159.772C299.721 161.327 360.547 192.704 423.234 174.799C485.922 156.893 389.784 115.797 527.751 119.101C665.717 122.406 670.812 145.88 726.397 139.017C808.309 128.904 762.216 70.8053 875.278 73.6312C1007.88 76.9455 908.701 51.4673 1027.19 16.5587" stroke="#DB0624"/>
<path d="M97.8579 224.662C70.9142 210.183 102.543 164.879 200.03 166.123C321.889 167.678 382.715 199.055 445.402 181.149C508.09 163.244 411.952 122.147 549.918 125.452C687.885 128.756 692.98 152.23 748.565 145.368C830.477 135.254 784.384 77.1559 897.446 79.9818C1030.05 83.2962 929.256 56.6588 1047.74 21.7502" stroke="#CE0831"/>
<path d="M120.026 231.013C93.0822 216.534 124.711 171.229 222.198 172.473C344.057 174.028 404.883 205.405 467.57 187.5C530.258 169.594 434.12 128.498 572.087 131.802C710.053 135.107 715.148 158.581 770.733 151.718C852.645 141.605 806.552 83.5064 919.614 86.3324C1052.22 89.6467 949.811 61.8503 1068.3 26.9417" stroke="#C20A3D"/>
<path d="M142.193 237.363C115.25 222.884 146.878 177.58 244.365 178.824C366.224 180.379 427.05 211.756 489.738 193.85C552.425 175.945 456.287 134.848 594.254 138.153C732.221 141.457 737.316 164.931 792.901 158.069C874.812 147.956 828.72 89.8571 941.782 92.683C1074.38 95.9974 970.366 67.0418 1088.85 32.1332" stroke="#B60C49"/>
<path d="M164.361 243.714C137.418 229.235 169.046 183.93 266.533 185.174C388.392 186.729 449.218 218.106 511.906 200.201C574.593 182.296 478.455 141.199 616.422 144.503C754.389 147.808 759.484 171.282 815.069 164.419C896.98 154.306 850.888 96.2076 963.95 99.0335C1096.55 102.348 990.921 72.2332 1109.41 37.3246" stroke="#AA0E55"/>
<path d="M186.529 250.065C159.585 235.586 191.214 190.281 288.701 191.525C410.56 193.08 471.386 224.457 534.073 206.552C596.761 188.646 500.623 147.55 638.59 150.854C776.556 154.159 781.651 177.633 837.236 170.77C919.148 160.657 873.056 102.558 986.118 105.384C1118.72 108.699 1011.48 77.4248 1129.96 42.5162" stroke="#9E1061"/>
<path d="M208.697 256.415C181.753 241.936 213.382 196.632 310.869 197.876C432.728 199.431 493.554 230.808 556.241 212.902C618.929 194.997 522.791 153.9 660.758 157.205C798.724 160.509 803.819 183.983 859.404 177.12C941.316 167.007 895.224 108.909 1008.29 111.735C1140.89 115.049 1032.03 82.6162 1150.52 47.7076" stroke="#92116D"/>
<path d="M230.864 262.766C203.921 248.287 235.549 202.982 333.036 204.226C454.895 205.781 515.721 237.158 578.409 219.253C641.096 201.347 544.959 160.251 682.925 163.555C820.892 166.86 825.987 190.334 881.572 183.471C963.483 173.358 917.391 115.259 1030.45 118.085C1163.06 121.4 1052.59 87.8077 1171.07 52.8991" stroke="#861379"/>
<path d="M253.033 269.116C226.089 254.637 257.717 209.333 355.204 210.577C477.063 212.132 537.889 243.509 600.577 225.603C663.265 207.698 567.127 166.601 705.093 169.906C843.06 173.21 848.155 196.684 903.74 189.822C985.651 179.709 939.559 121.61 1052.62 124.436C1185.22 127.75 1073.14 92.9992 1191.63 58.0906" stroke="#791586"/>
<path d="M275.2 275.467C248.256 260.988 279.885 215.683 377.372 216.927C499.231 218.482 560.057 249.859 622.745 231.954C685.432 214.048 589.294 172.952 727.261 176.256C865.227 179.561 870.322 203.035 925.907 196.172C1007.82 186.059 961.727 127.96 1074.79 130.786C1207.39 134.101 1093.7 98.1906 1212.18 63.282" stroke="#6D1792"/>
<path d="M297.369 281.818C270.425 267.338 302.053 222.034 399.54 223.278C521.399 224.833 582.226 256.21 644.913 238.304C707.601 220.399 611.463 179.303 749.429 182.607C887.396 185.911 892.491 209.385 948.076 202.523C1029.99 192.41 983.895 134.311 1096.96 137.137C1229.56 140.451 1114.25 103.382 1232.74 68.4735" stroke="#61199E"/>
<path d="M319.536 288.168C292.592 273.689 324.221 228.384 421.708 229.628C543.567 231.183 604.393 262.56 667.081 244.655C729.768 226.75 633.63 185.653 771.597 188.958C909.563 192.262 914.658 215.736 970.243 208.873C1052.15 198.76 1006.06 140.662 1119.12 143.488C1251.73 146.802 1134.81 108.574 1253.29 73.6649" stroke="#551BAA"/>
<path d="M341.704 294.519C314.76 280.04 346.389 234.735 443.876 235.979C565.735 237.534 626.561 268.911 689.249 251.006C751.936 233.1 655.798 192.004 793.765 195.308C931.731 198.613 936.826 222.087 992.411 215.224C1074.32 205.111 1028.23 147.012 1141.29 149.838C1273.89 153.153 1155.36 113.765 1273.85 78.8565" stroke="#491DB6"/>
<path d="M363.872 300.869C336.928 286.39 368.556 241.086 466.044 242.33C587.902 243.885 648.729 275.262 711.416 257.356C774.104 239.451 677.966 198.354 815.932 201.659C953.899 204.963 958.994 228.437 1014.58 221.574C1096.49 211.461 1050.4 153.363 1163.46 156.189C1296.06 159.503 1175.92 118.957 1294.4 84.0479" stroke="#3D1FC2"/>
<path d="M386.04 307.22C359.096 292.741 390.724 247.436 488.212 248.68C610.071 250.235 670.897 281.612 733.584 263.707C796.272 245.801 700.134 204.705 838.1 208.009C976.067 211.314 981.162 234.788 1036.75 227.925C1118.66 217.812 1072.57 159.713 1185.63 162.539C1318.23 165.854 1196.47 124.148 1314.96 89.2395" stroke="#3121CE"/>
<path d="M408.207 313.57C381.263 299.091 412.892 253.787 510.379 255.031C632.238 256.586 693.064 287.963 755.752 270.057C818.439 252.152 722.301 211.055 860.268 214.36C998.234 217.664 1003.33 241.138 1058.91 234.276C1140.83 224.163 1094.73 166.064 1207.8 168.89C1340.4 172.204 1217.02 129.339 1335.51 94.4309" stroke="#2423DB"/>
<path d="M430.375 319.921C403.431 305.442 435.06 260.137 532.547 261.381C654.406 262.936 715.232 294.313 777.92 276.408C840.607 258.503 744.469 217.406 882.436 220.711C1020.4 224.015 1025.5 247.489 1081.08 240.626C1162.99 230.513 1116.9 172.415 1229.96 175.241C1362.57 178.555 1237.58 134.531 1356.07 99.6224" stroke="#1825E7"/>
<path d="M452.543 326.272C425.6 311.792 457.228 266.488 554.715 267.732C676.574 269.287 737.4 300.664 800.088 282.758C862.775 264.853 766.637 223.757 904.604 227.061C1042.57 230.366 1047.67 253.839 1103.25 246.977C1185.16 236.864 1139.07 178.765 1252.13 181.591C1384.73 184.905 1258.14 139.722 1376.62 104.814" stroke="#0C27F3"/>
</svg>
